<svg width="1200" height="800" viewBox="0 0 1200 800" fill="none" xmlns="http://www.w3.org/2000/svg">
<path fill-rule="evenodd" clip-rule="evenodd" d="M116.028 382.879H335.101V543.305H116.028V382.879Z" fill="#FDF8BE" stroke="#C6BC41" stroke-width="0.75552" stroke-miterlimit="22.9256"/>
<path fill-rule="evenodd" clip-rule="evenodd" d="M335.202 268.339H1083.97V542.261H335.202V268.339Z" fill="#FDF8BE" stroke="#EBDE42" stroke-width="0.75552" stroke-miterlimit="22.9256"/>
<path fill-rule="evenodd" clip-rule="evenodd" d="M863.505 267.894L1083.97 268.34V542.262L335.101 543.306V472.044L663.679 476.946L863.505 267.894Z" fill="#2F5F6D"/>
<path fill-rule="evenodd" clip-rule="evenodd" d="M349.988 292.672H1069.81V305.881H349.988V292.672Z" fill="#2F2460"/>
<path fill-rule="evenodd" clip-rule="evenodd" d="M349.988 318.744H1069.81V343.772H349.988V318.744Z" fill="#2F2460"/>
<path fill-rule="evenodd" clip-rule="evenodd" d="M349.988 363.135H1069.81V388.163H349.988V363.135Z" fill="#2F2460"/>
<path fill-rule="evenodd" clip-rule="evenodd" d="M349.988 407.525H1069.81V432.554H349.988V407.525Z" fill="#2F2460"/>
<path fill-rule="evenodd" clip-rule="evenodd" d="M528.825 451.918H1069.81V476.946H528.825V451.918Z" fill="#2F2460"/>
<path fill-rule="evenodd" clip-rule="evenodd" d="M345.907 281.896H349.989V457.444H345.907V281.896Z" fill="#EDEDED"/>
<path fill-rule="evenodd" clip-rule="evenodd" d="M370.038 281.896H374.119V457.444H370.038V281.896Z" fill="#EDEDED"/>
<path fill-rule="evenodd" clip-rule="evenodd" d="M394.168 281.896H398.249V457.444H394.168V281.896Z" fill="#EDEDED"/>
<path fill-rule="evenodd" clip-rule="evenodd" d="M418.298 281.896H422.379V457.444H418.298V281.896Z" fill="#EDEDED"/>
<path fill-rule="evenodd" clip-rule="evenodd" d="M442.428 281.896H446.509V457.444H442.428V281.896Z" fill="#EDEDED"/>
<path fill-rule="evenodd" clip-rule="evenodd" d="M466.558 281.896H470.639V457.444H466.558V281.896Z" fill="#EDEDED"/>
<path fill-rule="evenodd" clip-rule="evenodd" d="M490.688 281.896H494.769V457.444H490.688V281.896Z" fill="#EDEDED"/>
<path fill-rule="evenodd" clip-rule="evenodd" d="M514.817 281.896H518.899V457.444H514.817V281.896Z" fill="#EDEDED"/>
<path fill-rule="evenodd" clip-rule="evenodd" d="M538.947 281.896H543.029V457.444H538.947V281.896Z" fill="#EDEDED"/>
<path fill-rule="evenodd" clip-rule="evenodd" d="M563.078 281.896H567.16V493.249H563.078V281.896Z" fill="#EDEDED"/>
<path fill-rule="evenodd" clip-rule="evenodd" d="M587.208 281.896H591.29V493.249H587.208V281.896Z" fill="#EDEDED"/>
<path fill-rule="evenodd" clip-rule="evenodd" d="M611.338 281.896H615.42V493.249H611.338V281.896Z" fill="#EDEDED"/>
<path fill-rule="evenodd" clip-rule="evenodd" d="M635.468 281.896H639.549V493.249H635.468V281.896Z" fill="#EDEDED"/>
<path fill-rule="evenodd" clip-rule="evenodd" d="M659.598 281.896H663.679V493.249H659.598V281.896Z" fill="#EDEDED"/>
<path fill-rule="evenodd" clip-rule="evenodd" d="M683.729 281.896H687.809V493.249H683.729V281.896Z" fill="#EDEDED"/>
<path fill-rule="evenodd" clip-rule="evenodd" d="M707.858 281.896H711.939V493.249H707.858V281.896Z" fill="#EDEDED"/>
<path fill-rule="evenodd" clip-rule="evenodd" d="M731.988 281.896H736.069V493.249H731.988V281.896Z" fill="#EDEDED"/>
<path fill-rule="evenodd" clip-rule="evenodd" d="M756.118 281.896H760.199V493.249H756.118V281.896Z" fill="#EDEDED"/>
<path fill-rule="evenodd" clip-rule="evenodd" d="M780.248 281.896H784.329V493.249H780.248V281.896Z" fill="#EDEDED"/>
<path fill-rule="evenodd" clip-rule="evenodd" d="M804.378 281.896H808.46V493.249H804.378V281.896Z" fill="#EDEDED"/>
<path fill-rule="evenodd" clip-rule="evenodd" d="M828.508 281.896H832.589V493.249H828.508V281.896Z" fill="#EDEDED"/>
<path fill-rule="evenodd" clip-rule="evenodd" d="M852.638 281.896H856.72V493.249H852.638V281.896Z" fill="#EDEDED"/>
<path fill-rule="evenodd" clip-rule="evenodd" d="M876.768 281.896H880.849V493.249H876.768V281.896Z" fill="#EDEDED"/>
<path fill-rule="evenodd" clip-rule="evenodd" d="M900.898 281.896H904.98V493.249H900.898V281.896Z" fill="#EDEDED"/>
<path fill-rule="evenodd" clip-rule="evenodd" d="M925.029 281.896H929.11V493.249H925.029V281.896Z" fill="#EDEDED"/>
<path fill-rule="evenodd" clip-rule="evenodd" d="M949.159 281.896H953.24V493.249H949.159V281.896Z" fill="#EDEDED"/>
<path fill-rule="evenodd" clip-rule="evenodd" d="M973.289 281.896H977.37V493.249H973.289V281.896Z" fill="#EDEDED"/>
<path fill-rule="evenodd" clip-rule="evenodd" d="M997.42 281.896H1001.5V493.249H997.42V281.896Z" fill="#EDEDED"/>
<path fill-rule="evenodd" clip-rule="evenodd" d="M1021.55 281.896H1025.63V493.249H1021.55V281.896Z" fill="#EDEDED"/>
<path fill-rule="evenodd" clip-rule="evenodd" d="M1045.68 281.896H1049.76V493.249H1045.68V281.896Z" fill="#EDEDED"/>
<path fill-rule="evenodd" clip-rule="evenodd" d="M1069.81 281.896H1073.89V493.249H1069.81V281.896Z" fill="#EDEDED"/>
<path fill-rule="evenodd" clip-rule="evenodd" d="M661.45 508.645H733.755V542.015H661.45V508.645Z" fill="#2F2460"/>
<path fill-rule="evenodd" clip-rule="evenodd" d="M757.128 508.645H782.852V532.389H757.128V508.645Z" fill="#2F2460"/>
<path fill-rule="evenodd" clip-rule="evenodd" d="M805.668 508.645H831.391V532.389H805.668V508.645Z" fill="#2F2460"/>
<path fill-rule="evenodd" clip-rule="evenodd" d="M563.672 508.645H589.396V532.389H563.672V508.645Z" fill="#2F2460"/>
<path fill-rule="evenodd" clip-rule="evenodd" d="M612.211 508.645H637.935V532.389H612.211V508.645Z" fill="#2F2460"/>
<path fill-rule="evenodd" clip-rule="evenodd" d="M878.655 508.645H904.379V532.389H878.655V508.645Z" fill="#2F2460"/>
<path fill-rule="evenodd" clip-rule="evenodd" d="M927.196 508.645H952.92V532.389H927.196V508.645Z" fill="#2F2460"/>
<path fill-rule="evenodd" clip-rule="evenodd" d="M998.237 508.645H1023.96V532.389H998.237V508.645Z" fill="#2F2460"/>
<path fill-rule="evenodd" clip-rule="evenodd" d="M1046.78 508.645H1072.5V532.389H1046.78V508.645Z" fill="#2F2460"/>
<path fill-rule="evenodd" clip-rule="evenodd" d="M130.592 406.795H325.462V431.823H130.592V406.795Z" fill="#2F2460"/>
<path fill-rule="evenodd" clip-rule="evenodd" d="M130.592 451.188H325.462V476.216H130.592V451.188Z" fill="#2F2460"/>
<path fill-rule="evenodd" clip-rule="evenodd" d="M130.592 495.578H325.462V520.606H130.592V495.578Z" fill="#2F2460"/>
<path fill-rule="evenodd" clip-rule="evenodd" d="M128.339 394.699H132.421V532.356H128.339V394.699Z" fill="#EDEDED"/>
<path fill-rule="evenodd" clip-rule="evenodd" d="M152.47 394.699H156.551V532.356H152.47V394.699Z" fill="#EDEDED"/>
<path fill-rule="evenodd" clip-rule="evenodd" d="M176.6 394.699H180.681V532.356H176.6V394.699Z" fill="#EDEDED"/>
<path fill-rule="evenodd" clip-rule="evenodd" d="M200.729 394.699H204.811V532.356H200.729V394.699Z" fill="#EDEDED"/>
<path fill-rule="evenodd" clip-rule="evenodd" d="M224.86 394.699H228.942V532.356H224.86V394.699Z" fill="#EDEDED"/>
<path fill-rule="evenodd" clip-rule="evenodd" d="M248.99 394.699H253.072V532.356H248.99V394.699Z" fill="#EDEDED"/>
<path fill-rule="evenodd" clip-rule="evenodd" d="M273.12 394.699H277.202V532.356H273.12V394.699Z" fill="#EDEDED"/>
<path fill-rule="evenodd" clip-rule="evenodd" d="M297.251 394.699H301.332V532.356H297.251V394.699Z" fill="#EDEDED"/>
<path fill-rule="evenodd" clip-rule="evenodd" d="M321.381 394.699H325.462V532.356H321.381V394.699Z" fill="#EDEDED"/>
<path fill-rule="evenodd" clip-rule="evenodd" d="M335.202 268.339H1083.97V272.511H335.202V268.339Z" fill="#954635"/>
<path fill-rule="evenodd" clip-rule="evenodd" d="M116.028 379.666H335.202V383.838H116.028V379.666Z" fill="#954635"/>
<path fill-rule="evenodd" clip-rule="evenodd" d="M335.101 451.881H549.479V492.204H335.101V451.881Z" fill="#954635"/>
<path fill-rule="evenodd" clip-rule="evenodd" d="M335.449 451.881H338.75V492.204H335.449V451.881Z" fill="#BF6D45"/>
<path fill-rule="evenodd" clip-rule="evenodd" d="M344.23 451.881H347.531V492.204H344.23V451.881Z" fill="#BF6D45"/>
<path fill-rule="evenodd" clip-rule="evenodd" d="M353.01 451.881H356.31V492.204H353.01V451.881Z" fill="#BF6D45"/>
<path fill-rule="evenodd" clip-rule="evenodd" d="M361.791 451.881H365.091V492.204H361.791V451.881Z" fill="#BF6D45"/>
<path fill-rule="evenodd" clip-rule="evenodd" d="M370.571 451.881H373.872V492.204H370.571V451.881Z" fill="#BF6D45"/>
<path fill-rule="evenodd" clip-rule="evenodd" d="M379.352 451.881H382.652V492.204H379.352V451.881Z" fill="#BF6D45"/>
<path fill-rule="evenodd" clip-rule="evenodd" d="M388.132 451.881H391.432V492.204H388.132V451.881Z" fill="#BF6D45"/>
<path fill-rule="evenodd" clip-rule="evenodd" d="M396.913 451.881H400.213V492.204H396.913V451.881Z" fill="#BF6D45"/>
<path fill-rule="evenodd" clip-rule="evenodd" d="M405.693 451.881H408.993V492.204H405.693V451.881Z" fill="#BF6D45"/>
<path fill-rule="evenodd" clip-rule="evenodd" d="M414.473 451.881H417.773V492.204H414.473V451.881Z" fill="#BF6D45"/>
<path fill-rule="evenodd" clip-rule="evenodd" d="M423.254 451.881H426.554V492.204H423.254V451.881Z" fill="#BF6D45"/>
<path fill-rule="evenodd" clip-rule="evenodd" d="M432.033 451.881H435.334V492.204H432.033V451.881Z" fill="#BF6D45"/>
<path fill-rule="evenodd" clip-rule="evenodd" d="M440.814 451.881H444.115V492.204H440.814V451.881Z" fill="#BF6D45"/>
<path fill-rule="evenodd" clip-rule="evenodd" d="M449.594 451.881H452.894V492.204H449.594V451.881Z" fill="#BF6D45"/>
<path fill-rule="evenodd" clip-rule="evenodd" d="M458.375 451.881H461.675V492.204H458.375V451.881Z" fill="#BF6D45"/>
<path fill-rule="evenodd" clip-rule="evenodd" d="M467.156 451.881H470.456V492.204H467.156V451.881Z" fill="#BF6D45"/>
<path fill-rule="evenodd" clip-rule="evenodd" d="M475.936 451.881H479.236V492.204H475.936V451.881Z" fill="#BF6D45"/>
<path fill-rule="evenodd" clip-rule="evenodd" d="M484.717 451.881H488.017V492.204H484.717V451.881Z" fill="#BF6D45"/>
<path fill-rule="evenodd" clip-rule="evenodd" d="M493.496 451.881H496.797V492.204H493.496V451.881Z" fill="#BF6D45"/>
<path fill-rule="evenodd" clip-rule="evenodd" d="M502.277 451.881H505.577V492.204H502.277V451.881Z" fill="#BF6D45"/>
<path fill-rule="evenodd" clip-rule="evenodd" d="M511.057 451.881H514.358V492.204H511.057V451.881Z" fill="#BF6D45"/>
<path fill-rule="evenodd" clip-rule="evenodd" d="M519.838 451.881H523.138V492.204H519.838V451.881Z" fill="#BF6D45"/>
<path fill-rule="evenodd" clip-rule="evenodd" d="M528.618 451.881H531.918V492.204H528.618V451.881Z" fill="#BF6D45"/>
<path fill-rule="evenodd" clip-rule="evenodd" d="M537.398 451.881H540.699V492.204H537.398V451.881Z" fill="#BF6D45"/>
<path fill-rule="evenodd" clip-rule="evenodd" d="M546.179 451.881H549.479V492.204H546.179V451.881Z" fill="#BF6D45"/>
<path fill-rule="evenodd" clip-rule="evenodd" d="M335.101 492.205H351.416V543.282H335.101V492.205Z" fill="#BF6D45"/>
<path fill-rule="evenodd" clip-rule="evenodd" d="M434.062 492.205H450.376V543.282H434.062V492.205Z" fill="#BF6D45"/>
<path fill-rule="evenodd" clip-rule="evenodd" d="M533.021 492.205H549.335V543.282H533.021V492.205Z" fill="#BF6D45"/>
<path fill-rule="evenodd" clip-rule="evenodd" d="M363.011 497.42H421.759V543.223H363.011V497.42Z" fill="#954635"/>
<path fill-rule="evenodd" clip-rule="evenodd" d="M365.041 510.629H375.385V541.219H365.041V510.629Z" fill="#2F2460"/>
<path fill-rule="evenodd" clip-rule="evenodd" d="M379.718 510.629H390.062V541.219H379.718V510.629Z" fill="#2F2460"/>
<path fill-rule="evenodd" clip-rule="evenodd" d="M394.396 510.629H404.74V541.219H394.396V510.629Z" fill="#2F2460"/>
<path fill-rule="evenodd" clip-rule="evenodd" d="M409.073 510.629H419.418V541.219H409.073V510.629Z" fill="#2F2460"/>
<path fill-rule="evenodd" clip-rule="evenodd" d="M365.041 499.506H375.385V507.502H365.041V499.506Z" fill="#2F2460"/>
<path fill-rule="evenodd" clip-rule="evenodd" d="M379.718 499.506H390.062V507.502H379.718V499.506Z" fill="#2F2460"/>
<path fill-rule="evenodd" clip-rule="evenodd" d="M394.396 499.506H404.74V507.502H394.396V499.506Z" fill="#2F2460"/>
<path fill-rule="evenodd" clip-rule="evenodd" d="M409.073 499.506H419.418V507.502H409.073V499.506Z" fill="#2F2460"/>
<path fill-rule="evenodd" clip-rule="evenodd" d="M462.68 497.42H521.427V543.223H462.68V497.42Z" fill="#954635"/>
<path fill-rule="evenodd" clip-rule="evenodd" d="M464.709 510.629H475.053V541.219H464.709V510.629Z" fill="#2F2460"/>
<path fill-rule="evenodd" clip-rule="evenodd" d="M479.387 510.629H489.73V541.219H479.387V510.629Z" fill="#2F2460"/>
<path fill-rule="evenodd" clip-rule="evenodd" d="M494.064 510.629H504.409V541.219H494.064V510.629Z" fill="#2F2460"/>
<path fill-rule="evenodd" clip-rule="evenodd" d="M508.742 510.629H519.086V541.219H508.742V510.629Z" fill="#2F2460"/>
<path fill-rule="evenodd" clip-rule="evenodd" d="M464.709 499.506H475.053V507.502H464.709V499.506Z" fill="#2F2460"/>
<path fill-rule="evenodd" clip-rule="evenodd" d="M479.387 499.506H489.73V507.502H479.387V499.506Z" fill="#2F2460"/>
<path fill-rule="evenodd" clip-rule="evenodd" d="M494.064 499.506H504.409V507.502H494.064V499.506Z" fill="#2F2460"/>
<path fill-rule="evenodd" clip-rule="evenodd" d="M508.742 499.506H519.086V507.502H508.742V499.506Z" fill="#2F2460"/>
<path fill-rule="evenodd" clip-rule="evenodd" d="M342.751 256.694H1075.62V257.737H342.751V256.694Z" fill="#2F2460"/>
<path fill-rule="evenodd" clip-rule="evenodd" d="M342.326 256.694H343.177V268.166H342.326V256.694Z" fill="#2F2460"/>
<path fill-rule="evenodd" clip-rule="evenodd" d="M380.947 256.694H381.798V268.166H380.947V256.694Z" fill="#2F2460"/>
<path fill-rule="evenodd" clip-rule="evenodd" d="M419.568 256.694H420.419V268.166H419.568V256.694Z" fill="#2F2460"/>
<path fill-rule="evenodd" clip-rule="evenodd" d="M458.189 256.694H459.04V268.166H458.189V256.694Z" fill="#2F2460"/>
<path fill-rule="evenodd" clip-rule="evenodd" d="M496.81 256.694H497.661V268.166H496.81V256.694Z" fill="#2F2460"/>
<path fill-rule="evenodd" clip-rule="evenodd" d="M535.432 256.694H536.282V268.166H535.432V256.694Z" fill="#2F2460"/>
<path fill-rule="evenodd" clip-rule="evenodd" d="M574.052 256.694H574.903V268.166H574.052V256.694Z" fill="#2F2460"/>
<path fill-rule="evenodd" clip-rule="evenodd" d="M612.673 256.694H613.524V268.166H612.673V256.694Z" fill="#2F2460"/>
<path fill-rule="evenodd" clip-rule="evenodd" d="M651.294 256.694H652.144V268.166H651.294V256.694Z" fill="#2F2460"/>
<path fill-rule="evenodd" clip-rule="evenodd" d="M689.915 256.694H690.765V268.166H689.915V256.694Z" fill="#2F2460"/>
<path fill-rule="evenodd" clip-rule="evenodd" d="M728.536 256.694H729.386V268.166H728.536V256.694Z" fill="#2F2460"/>
<path fill-rule="evenodd" clip-rule="evenodd" d="M767.157 256.694H768.008V268.166H767.157V256.694Z" fill="#2F2460"/>
<path fill-rule="evenodd" clip-rule="evenodd" d="M805.778 256.694H806.63V268.166H805.778V256.694Z" fill="#2F2460"/>
<path fill-rule="evenodd" clip-rule="evenodd" d="M844.399 256.694H845.251V268.166H844.399V256.694Z" fill="#2F2460"/>
<path fill-rule="evenodd" clip-rule="evenodd" d="M883.021 256.694H883.872V268.166H883.021V256.694Z" fill="#2F2460"/>
<path fill-rule="evenodd" clip-rule="evenodd" d="M921.643 256.694H922.493V268.166H921.643V256.694Z" fill="#2F2460"/>
<path fill-rule="evenodd" clip-rule="evenodd" d="M960.263 256.694H961.114V268.166H960.263V256.694Z" fill="#2F2460"/>
<path fill-rule="evenodd" clip-rule="evenodd" d="M998.884 256.694H999.735V268.166H998.884V256.694Z" fill="#2F2460"/>
<path fill-rule="evenodd" clip-rule="evenodd" d="M1037.5 256.694H1038.36V268.166H1037.5V256.694Z" fill="#2F2460"/>
<path fill-rule="evenodd" clip-rule="evenodd" d="M1076.13 256.694H1076.98V268.166H1076.13V256.694Z" fill="#2F2460"/>
<path fill-rule="evenodd" clip-rule="evenodd" d="M124.616 367.746H335.202V368.789H124.616V367.746Z" fill="#2F2460"/>
<path fill-rule="evenodd" clip-rule="evenodd" d="M123.766 367.746H124.616V379.216H123.766V367.746Z" fill="#2F2460"/>
<path fill-rule="evenodd" clip-rule="evenodd" d="M162.386 367.746H163.237V379.216H162.386V367.746Z" fill="#2F2460"/>
<path fill-rule="evenodd" clip-rule="evenodd" d="M201.007 367.746H201.858V379.216H201.007V367.746Z" fill="#2F2460"/>
<path fill-rule="evenodd" clip-rule="evenodd" d="M239.628 367.746H240.479V379.216H239.628V367.746Z" fill="#2F2460"/>
<path fill-rule="evenodd" clip-rule="evenodd" d="M278.249 367.746H279.099V379.216H278.249V367.746Z" fill="#2F2460"/>
<path fill-rule="evenodd" clip-rule="evenodd" d="M316.87 367.746H317.72V379.216H316.87V367.746Z" fill="#2F2460"/>
</svg>
