<svg width="1200" height="800" viewBox="0 0 1200 800" fill="none" xmlns="http://www.w3.org/2000/svg">
<path d="M904.455 528.203H296.26V626.259H904.455V528.203Z" fill="#29626B"/>
<path fill-rule="evenodd" clip-rule="evenodd" d="M168.563 236.691H292.345V528.11L296.121 528.063L295.887 609.389L168.797 609.715L168.563 236.691Z" fill="#EBDF3F"/>
<path d="M292.345 236.691H168.563V246.619H292.345V236.691Z" fill="#C7BD36"/>
<path d="M349.62 527.912H291.364V609.506H349.62V527.912Z" fill="#C7BD36"/>
<path fill-rule="evenodd" clip-rule="evenodd" d="M291.18 150.893H908.412V528.204H291.18V150.893Z" fill="#EBDF3F"/>
<path d="M908.411 150.893H291.18V159.468H908.411V150.893Z" fill="#C7BD36"/>
<path d="M391.727 151.943H389.649V529.254H391.727V151.943Z" fill="#FFF7C1"/>
<path d="M518.81 531.237H366.961V617.949H518.81V531.237Z" fill="#2E2657"/>
<path fill-rule="evenodd" clip-rule="evenodd" d="M361.176 527.934H524.595V621.252H361.176V527.934ZM442.885 531.237V617.949H518.81V531.237H442.885ZM441.118 617.949V531.237H366.96V617.949H441.118Z" fill="#A34129"/>
<path d="M826.865 531.414H675.016V617.867H826.865V531.414Z" fill="#2E2657"/>
<path fill-rule="evenodd" clip-rule="evenodd" d="M669.23 528.12H832.649V621.16H669.23V528.12ZM750.94 531.414V617.867H826.864V531.414H750.94ZM749.174 617.867V531.414H675.015V617.867H749.174Z" fill="#A34129"/>
<path d="M295.84 609.715H168.797V626.259H295.84V609.715Z" fill="#29626B"/>
<path fill-rule="evenodd" clip-rule="evenodd" d="M1032.01 236.691H908.23V528.11L904.455 528.063L904.688 609.389L1031.78 609.715L1032.01 236.691Z" fill="#EBDF3F"/>
<path d="M1032.01 236.691H908.229V246.619H1032.01V236.691Z" fill="#C7BD36"/>
<path d="M908.405 528.063H846.199V609.296H908.405V528.063Z" fill="#C7BD36"/>
<path fill-rule="evenodd" clip-rule="evenodd" d="M1031.78 609.287H903.933V626.26H1031.78V609.287Z" fill="#29626B"/>
<path d="M349.574 609.506H296.26V626.26H349.574V609.506Z" fill="#2E2657"/>
<path d="M904.455 609.109H846.193V626.26H904.455V609.109Z" fill="#2E2657"/>
<path d="M291.27 235.899H282.324V609.414H291.27V235.899Z" fill="#C7BD36"/>
<path fill-rule="evenodd" clip-rule="evenodd" d="M908.405 236.745H917.352V609.247H908.405V236.745Z" fill="#C7BD36"/>
<path d="M906.78 640.405H691.652V648.981H906.78V640.405Z" fill="#A34129"/>
<path fill-rule="evenodd" clip-rule="evenodd" d="M672.638 626.26H846.193L909.389 640.778H691.652L672.638 626.26Z" fill="#29626B"/>
<path d="M453.342 339.484H411.834V392.267H453.342V339.484Z" fill="#29626B"/>
<path d="M519.15 339.484H477.642V392.267H519.15V339.484Z" fill="#29626B"/>
<path d="M584.957 339.484H543.448V392.267H584.957V339.484Z" fill="#29626B"/>
<path d="M387.536 339.484H346.027V392.267H387.536V339.484Z" fill="#29626B"/>
<path d="M453.342 431.431H411.834V484.213H453.342V431.431Z" fill="#29626B"/>
<path d="M519.15 431.431H477.642V484.213H519.15V431.431Z" fill="#29626B"/>
<path d="M584.957 431.431H543.448V484.213H584.957V431.431Z" fill="#29626B"/>
<path d="M387.536 431.431H346.027V484.213H387.536V431.431Z" fill="#29626B"/>
<path d="M453.342 242.682H411.834V295.464H453.342V242.682Z" fill="#29626B"/>
<path d="M519.15 242.682H477.642V295.464H519.15V242.682Z" fill="#29626B"/>
<path d="M584.957 242.857H543.448V295.64H584.957V242.857Z" fill="#29626B"/>
<path d="M387.536 242.682H346.027V295.464H387.536V242.682Z" fill="#29626B"/>
<path fill-rule="evenodd" clip-rule="evenodd" d="M344.132 240.271H389.431V297.875H344.132V240.271ZM368.989 245.013V293.134H385.703V245.013H368.989ZM364.748 293.134V245.013H347.86V293.134H364.748Z" fill="#A34129"/>
<path fill-rule="evenodd" clip-rule="evenodd" d="M409.596 240.271H454.895V297.875H409.596V240.271ZM434.453 245.013V293.134H451.167V245.013H434.453ZM430.212 293.134V245.013H413.323V293.134H430.212Z" fill="#A34129"/>
<path fill-rule="evenodd" clip-rule="evenodd" d="M475.059 240.271H520.358V297.875H475.059V240.271ZM499.916 245.013V293.134H516.629V245.013H499.916ZM495.675 293.134V245.013H478.787V293.134H495.675Z" fill="#A34129"/>
<path fill-rule="evenodd" clip-rule="evenodd" d="M541.953 240.271H587.253V297.875H541.953V240.271ZM566.81 245.013V293.134H583.524V245.013H566.81ZM562.569 293.134V245.013H545.681V293.134H562.569Z" fill="#A34129"/>
<path fill-rule="evenodd" clip-rule="evenodd" d="M409.596 337.075H454.895V394.678H409.596V337.075ZM434.453 341.817V389.938H451.167V341.817H434.453ZM430.212 389.938V341.817H413.323V389.938H430.212Z" fill="#A34129"/>
<path fill-rule="evenodd" clip-rule="evenodd" d="M475.059 337.075H520.358V394.678H475.059V337.075ZM499.916 341.817V389.938H516.629V341.817H499.916ZM495.675 389.938V341.817H478.787V389.938H495.675Z" fill="#A34129"/>
<path fill-rule="evenodd" clip-rule="evenodd" d="M541.953 337.075H587.253V394.678H541.953V337.075ZM566.81 341.817V389.938H583.524V341.817H566.81ZM562.569 389.938V341.817H545.681V389.938H562.569Z" fill="#A34129"/>
<path fill-rule="evenodd" clip-rule="evenodd" d="M344.132 429.021H389.431V486.624H344.132V429.021ZM368.989 433.762V481.883H385.703V433.762H368.989ZM364.748 481.883V433.762H347.86V481.883H364.748Z" fill="#A34129"/>
<path fill-rule="evenodd" clip-rule="evenodd" d="M409.596 429.021H454.895V486.624H409.596V429.021ZM434.453 433.762V481.883H451.167V433.762H434.453ZM430.212 481.883V433.762H413.323V481.883H430.212Z" fill="#A34129"/>
<path fill-rule="evenodd" clip-rule="evenodd" d="M475.059 429.021H520.358V486.624H475.059V429.021ZM499.916 433.762V481.883H516.629V433.762H499.916ZM495.675 481.883V433.762H478.787V481.883H495.675Z" fill="#A34129"/>
<path fill-rule="evenodd" clip-rule="evenodd" d="M541.953 429.021H587.253V486.624H541.953V429.021ZM566.81 433.762V481.883H583.524V433.762H566.81ZM562.569 481.883V433.762H545.681V481.883H562.569Z" fill="#A34129"/>
<path fill-rule="evenodd" clip-rule="evenodd" d="M523.734 527.931H596.263V620.159H523.734V527.931ZM563.533 535.521V612.568H590.294V535.521H563.533ZM556.743 612.568V535.521H529.704V612.568H556.743Z" fill="#A34129"/>
<path fill-rule="evenodd" clip-rule="evenodd" d="M596.624 527.931H669.153V620.159H596.624V527.931ZM636.423 535.521V612.568H663.183V535.521H636.423ZM629.633 612.568V535.521H602.593V612.568H629.633Z" fill="#A34129"/>
<path d="M368.26 528.203H354.838V626.259H368.26V528.203Z" fill="#29626B"/>
<path d="M506.21 528.203H492.788V626.259H506.21V528.203Z" fill="#29626B"/>
<path d="M704.186 528.203H690.765V626.259H704.186V528.203Z" fill="#29626B"/>
<path d="M841.11 528.203H827.688V626.259H841.11V528.203Z" fill="#29626B"/>
<path d="M409.437 151.943H407.359V529.254H409.437V151.943Z" fill="#FFF7C1"/>
<path d="M457.534 151.943H455.456V529.254H457.534V151.943Z" fill="#FFF7C1"/>
<path d="M474.869 151.943H472.792V529.254H474.869V151.943Z" fill="#FFF7C1"/>
<path d="M522.868 151.943H520.791V529.254H522.868V151.943Z" fill="#FFF7C1"/>
<path d="M541.887 151.943H539.81V529.254H541.887V151.943Z" fill="#FFF7C1"/>
<path d="M589.818 151.943H587.74V529.254H589.818V151.943Z" fill="#FFF7C1"/>
<path d="M608.835 151.943H606.758V529.254H608.835V151.943Z" fill="#FFF7C1"/>
<path d="M652.551 431.43H611.043V484.212H652.551V431.43Z" fill="#29626B"/>
<path fill-rule="evenodd" clip-rule="evenodd" d="M609.547 429.021H654.846V486.624H609.547V429.021ZM634.404 433.762V481.883H651.118V433.762H634.404ZM630.163 481.883V433.762H613.275V481.883H630.163Z" fill="#A34129"/>
<path d="M657.077 151.943H655V529.254H657.077V151.943Z" fill="#FFF7C1"/>
<path d="M676.095 151.943H674.018V529.254H676.095V151.943Z" fill="#FFF7C1"/>
<path d="M719.38 431.43H677.871V484.212H719.38V431.43Z" fill="#29626B"/>
<path fill-rule="evenodd" clip-rule="evenodd" d="M676.375 429.021H721.675V486.624H676.375V429.021ZM701.232 433.762V481.883H717.946V433.762H701.232ZM696.991 481.883V433.762H680.104V481.883H696.991Z" fill="#A34129"/>
<path d="M791.297 151.943H789.22V529.254H791.297V151.943Z" fill="#FFF7C1"/>
<path d="M810.315 151.943H808.237V529.254H810.315V151.943Z" fill="#FFF7C1"/>
<path d="M786.477 431.43H744.969V484.212H786.477V431.43Z" fill="#29626B"/>
<path fill-rule="evenodd" clip-rule="evenodd" d="M743.473 429.021H788.772V486.624H743.473V429.021ZM768.33 433.762V481.883H785.044V433.762H768.33ZM764.089 481.883V433.762H747.201V481.883H764.089Z" fill="#A34129"/>
<path d="M652.551 338.815H611.043V391.598H652.551V338.815Z" fill="#29626B"/>
<path fill-rule="evenodd" clip-rule="evenodd" d="M609.547 336.405H654.846V394.009H609.547V336.405ZM634.404 341.147V389.268H651.118V341.147H634.404ZM630.163 389.268V341.147H613.275V389.268H630.163Z" fill="#A34129"/>
<path d="M719.38 338.815H677.871V391.598H719.38V338.815Z" fill="#29626B"/>
<path fill-rule="evenodd" clip-rule="evenodd" d="M676.375 336.405H721.675V394.009H676.375V336.405ZM701.232 341.147V389.268H717.946V341.147H701.232ZM696.991 389.268V341.147H680.104V389.268H696.991Z" fill="#A34129"/>
<path d="M786.477 338.815H744.969V391.598H786.477V338.815Z" fill="#29626B"/>
<path fill-rule="evenodd" clip-rule="evenodd" d="M743.473 336.405H788.772V394.009H743.473V336.405ZM768.33 341.147V389.268H785.044V341.147H768.33ZM764.089 389.268V341.147H747.201V389.268H764.089Z" fill="#A34129"/>
<path d="M652.446 242.363H610.938V295.146H652.446V242.363Z" fill="#29626B"/>
<path fill-rule="evenodd" clip-rule="evenodd" d="M609.441 239.953H654.741V297.557H609.441V239.953ZM634.299 244.695V292.816H651.012V244.695H634.299ZM630.057 292.816V244.695H613.169V292.816H630.057Z" fill="#A34129"/>
<path d="M719.274 242.363H677.766V295.146H719.274V242.363Z" fill="#29626B"/>
<path fill-rule="evenodd" clip-rule="evenodd" d="M676.269 239.953H721.568V297.557H676.269V239.953ZM701.126 244.695V292.816H717.839V244.695H701.126ZM696.885 292.816V244.695H679.996V292.816H696.885Z" fill="#A34129"/>
<path d="M786.371 242.363H744.862V295.146H786.371V242.363Z" fill="#29626B"/>
<path fill-rule="evenodd" clip-rule="evenodd" d="M743.366 239.953H788.666V297.557H743.366V239.953ZM768.223 244.695V292.816H784.937V244.695H768.223ZM763.982 292.816V244.695H747.094V292.816H763.982Z" fill="#A34129"/>
<path d="M724.097 151.943H722.02V529.254H724.097V151.943Z" fill="#FFF7C1"/>
<path d="M743.116 151.943H741.038V529.254H743.116V151.943Z" fill="#FFF7C1"/>
<path d="M853.863 431.43H812.354V484.212H853.863V431.43Z" fill="#29626B"/>
<path fill-rule="evenodd" clip-rule="evenodd" d="M810.858 429.021H856.158V486.624H810.858V429.021ZM835.716 433.762V481.883H852.429V433.762H835.716ZM831.474 481.883V433.762H814.586V481.883H831.474Z" fill="#A34129"/>
<path d="M853.863 338.815H812.354V391.598H853.863V338.815Z" fill="#29626B"/>
<path fill-rule="evenodd" clip-rule="evenodd" d="M810.858 336.405H856.158V394.009H810.858V336.405ZM835.716 341.147V389.268H852.429V341.147H835.716ZM831.474 389.268V341.147H814.586V389.268H831.474Z" fill="#A34129"/>
<path d="M853.758 242.363H812.249V295.146H853.758V242.363Z" fill="#29626B"/>
<path fill-rule="evenodd" clip-rule="evenodd" d="M810.753 239.953H856.052V297.557H810.753V239.953ZM835.61 244.695V292.816H852.324V244.695H835.61ZM831.369 292.816V244.695H814.481V292.816H831.369Z" fill="#A34129"/>
<path d="M325.382 151.943H323.305V529.254H325.382V151.943Z" fill="#FFF7C1"/>
<path d="M343.092 151.943H341.015V529.254H343.092V151.943Z" fill="#FFF7C1"/>
<path d="M858.827 151.943H856.75V529.254H858.827V151.943Z" fill="#FFF7C1"/>
<path d="M876.536 151.943H874.459V529.254H876.536V151.943Z" fill="#FFF7C1"/>
<path fill-rule="evenodd" clip-rule="evenodd" d="M672.638 626.26L672.679 629.445L691.652 648.981V640.778L672.638 626.26Z" fill="#2E2657"/>
<path fill-rule="evenodd" clip-rule="evenodd" d="M349.434 626.295H672.679V629.445H349.434V626.295Z" fill="#2E2657"/>
<path fill-rule="evenodd" clip-rule="evenodd" d="M698.386 627.74H829.094L861.308 635.444L711.455 634.771L698.386 627.74Z" fill="#2E2657"/>
<path d="M807.467 597.36H773.174V632.016H807.467V597.36Z" fill="#29626B"/>
<path fill-rule="evenodd" clip-rule="evenodd" d="M773.173 597.36L766.167 598.872L766.127 629.577L773.173 632.015V597.36Z" fill="#A34129"/>
<path fill-rule="evenodd" clip-rule="evenodd" d="M787.164 566.004C795.799 566.004 802.799 573.004 802.799 581.639C802.799 590.275 795.799 597.275 787.164 597.275C778.529 597.275 771.528 590.275 771.528 581.639C771.528 573.004 778.529 566.004 787.164 566.004Z" fill="#C7674F"/>
<path fill-rule="evenodd" clip-rule="evenodd" d="M787.863 583.008C795.101 580.924 797.793 572.944 800.083 579.53C802.373 586.117 798.362 593.146 791.124 595.229C783.885 597.313 776.161 593.663 773.872 587.076C771.582 580.49 780.625 585.091 787.863 583.008Z" fill="#A34129"/>
<path fill-rule="evenodd" clip-rule="evenodd" d="M783.374 567.064C789.128 565.593 796.963 568.328 795.938 570.961C794.914 573.594 792.132 568.392 784.333 570.819C776.533 573.245 775.299 578.762 774.344 576.888C773.389 575.014 777.62 568.534 783.373 567.063L783.374 567.064Z" fill="#FFF7C1"/>
<path d="M757.583 331.257H753.707V632.509H757.583V331.257Z" fill="#2E2657"/>
<path d="M749.139 331.257H745.264V632.509H749.139V331.257Z" fill="#2E2657"/>
<path fill-rule="evenodd" clip-rule="evenodd" d="M757.234 332.064H754.802C754.802 332.064 754.373 349.234 754.945 352.668C755.517 356.102 754.373 373.987 755.803 376.992C757.234 379.996 771.328 384.688 772.759 387.55C774.19 390.411 775.621 393.272 775.621 393.272C775.621 393.272 783.205 392.843 783.633 389.266C784.062 385.689 767.392 367.262 766.391 365.545C765.39 363.829 762.671 345.8 762.671 345.8L757.234 332.064Z" fill="#EBDF3F"/>
<path fill-rule="evenodd" clip-rule="evenodd" d="M757.192 332.417H755.479C755.479 332.417 755.177 344.504 755.58 346.922C755.983 349.34 756.036 358.067 757.043 360.182C758.05 362.298 759.656 368.552 760.663 370.567C761.67 372.581 774.614 377.32 776.259 378.215C777.905 379.109 768.77 368.522 766.122 365.207C765.825 363.754 764.821 358.938 764.356 356.202C763.89 353.465 762.67 345.801 762.67 345.801L757.192 332.417Z" fill="#5B6CEB"/>
</svg>
