<svg width="3039" height="2179" viewBox="0 0 3039 2179" fill="none" xmlns="http://www.w3.org/2000/svg">
<path fill-rule="evenodd" clip-rule="evenodd" d="M435.797 952.765L421.464 994.196L194.676 976.72L98.4629 1059.97L139.304 1243.76L175.433 1377.28C175.433 1377.28 183.68 1393.77 204.1 1387.1C224.521 1380.42 231.983 1322.69 231.983 1322.69L266.933 1297.95C266.933 1297.95 282.249 1305.42 298.35 1302.27C314.451 1299.13 369.431 1266.54 387.888 1261.04C406.345 1255.54 431.086 1258.29 445.223 1225.7C459.36 1193.1 447.579 1177.79 455.826 1157.37C464.073 1136.94 488.421 1126.34 495.882 1131.84C503.343 1137.34 547.326 1191.53 566.569 1200.56C585.811 1209.6 625.083 1223.73 632.544 1242.58C640.005 1261.43 645.503 1287.35 645.503 1287.35L661.211 1296.38L677.705 1297.17C677.705 1297.17 707.551 1284.6 733.47 1280.28C759.389 1275.96 780.988 1257.51 792.769 1236.3C804.55 1215.09 810.833 1194.67 810.833 1194.67L819.866 1233.16L811.618 1234.73L832.825 1250.44L833.217 1270.86L856.387 1265.36L864.634 1281.86L909.403 1318.77L1047.24 1436.58L1072.77 1418.12L1095.15 1412.63L1337.85 1513.55L1451.34 1552.43L1575.83 1558.32L1601.55 1606.62L1666.94 1577.76L1684.61 1645.31L1688.14 1683.79L1741.16 1669.26L1738.41 1653.55L1780.04 1650.02L1787.5 1668.48C1787.5 1668.48 1798.88 1672.01 1803.2 1680.26C1807.52 1688.5 1842.08 1750.55 1842.08 1750.55C1842.08 1750.55 1835.01 1756.83 1834.23 1760.37C1833.44 1763.9 1826.38 1792.57 1826.38 1792.57L1836.19 1824.38L1857.79 1861.29L1856.22 1878.18L1875.07 2034.48L1875.46 2041.55L1905.9 2038.6C1905.9 2038.6 1902.76 1959.67 1920.04 1952.6C1937.31 1945.53 1962.25 1982.84 1962.25 1982.84C1962.25 1982.84 2043.35 2053.92 2059.84 2056.27C2076.33 2058.63 2076.33 2026.04 2076.33 2026.04C2076.33 2026.04 2068.09 1984.02 2064.55 1940.03C2061.02 1896.05 2063.37 1882.31 2063.37 1882.31L2042.17 1855.99L2013.89 1867.78L1994.26 1828.9L1980.91 1772.74L2002.11 1764.89L1997.79 1748L1978.55 1726.01L1951.06 1715.01L1920.82 1671.81L1903.15 1683.01L1896.47 1670.64L1874.48 1671.42L1861.92 1657.38L1842.77 1625.77L1832.07 1633.13L1827.65 1632.74L1774.73 1539.96L1903.15 1476.34L1916.5 1468.88L1925.53 1470.06L1927.89 1461.81L1906.29 1448.85L1947.53 1461.42L1948.31 1467.71L1960.88 1472.03V1494.8C1960.88 1494.8 2007.22 1501.09 2011.54 1507.76C2015.86 1514.44 2018.61 1484.59 2018.61 1484.59L2116.39 1509.72L2130.13 1495.19L2110.5 1475.95L2129.74 1459.46C2129.74 1459.46 2111.28 1456.71 2106.18 1448.86C2101.07 1441 2107.75 1427.26 2107.75 1427.26L2097.54 1422.15L2110.4 1398.79C2110.4 1398.79 2107.16 1397.02 2110.4 1393.29C2113.64 1389.56 2114.52 1387.3 2114.52 1387.3L2093.91 1372.08C2093.91 1372.08 2097.74 1363.25 2097.74 1360.01C2097.74 1356.77 2096.46 1353.72 2097.05 1350.48C2097.64 1347.24 2109.91 1335.85 2109.91 1335.85C2109.91 1335.85 2113.35 1340.76 2116.09 1342.53C2118.84 1344.3 2130.23 1349.21 2130.23 1349.21L2173.04 1323.68C2173.04 1323.68 2181.09 1297.76 2183.84 1296.58C2186.59 1295.4 2166.95 1272.63 2166.95 1272.63C2166.95 1272.63 2156.54 1258.1 2156.94 1256.72C2157.33 1255.35 2161.26 1236.3 2161.26 1236.3C2161.26 1236.3 2153.01 1231.59 2150.46 1228.64C2147.9 1225.7 2144.17 1228.06 2144.17 1228.06L2132.39 1220.2L2116.09 1241.21L2103.53 1244.55L2078.2 1213.53L2064.65 1233.95L2030.88 1247.69C2030.88 1247.69 2036.18 1088.06 2037.36 1074.31C2038.53 1060.57 2036.18 1037.4 2046 1027.19C2055.81 1016.98 2058.17 1010.5 2058.17 1010.5C2058.17 1010.5 2102.74 965.53 2109.42 941.771C2116.09 918.013 2123.36 864.408 2123.36 863.033C2123.36 861.658 2123.36 835.347 2111.77 823.762C2100.19 812.178 2091.16 798.236 2091.16 798.236C2091.16 798.236 2049.92 829.26 2044.42 842.612C2038.93 855.963 2020.47 852.43 2020.47 852.43L1945.46 855.963L1903.44 852.43L1921.9 820.227L1850.03 805.697L1825.49 720.479L1852 732.065L1911.49 690.24L1958.72 705.261L1953.71 715.865L1970.6 720.086L1987.87 685.332L2006.33 705.753L2015.76 705.556L2020.08 700.451L2024.2 703.985C2024.2 703.985 2083.69 657.056 2108.43 613.465C2133.18 569.875 2174.02 467.378 2174.02 467.378L2210.15 382.554L2189.33 365.667L2129.64 496.438L2095.08 482.3L2080.55 510.575L2056.99 501.543L2055.32 505.175L2046.09 498.402L2041.09 510.085L1996.12 535.807L1977.66 524.026L1967.06 535.218L1978.84 543.858C1978.84 543.858 1967.45 550.73 1961.56 559.959C1955.67 569.187 1927.59 603.942 1927.59 603.942C1927.59 603.942 1882.43 557.603 1871.83 551.123C1861.23 544.643 1676.65 452.946 1676.65 452.946C1676.65 452.946 1659.37 487.111 1661.73 500.463C1664.09 513.815 1664.09 538.948 1664.09 538.948L1662.12 588.822L1567.09 557.798L1575.34 576.255L1569.84 586.465L1527.82 569.971L1535.28 552.692L1536.06 540.911L1514.86 539.341L1509.75 569.579L1498.36 588.821L1479.91 563.295L1486.98 559.367C1486.98 559.367 1491.69 514.206 1496.01 507.53C1500.33 500.854 1466.16 487.894 1466.16 487.894L1455.95 520.097L1437.89 507.138L1431.21 509.493L1403.72 443.126L1407.65 436.057L1406.86 383.827L1386.84 328.848L1393.9 260.517L1393.12 245.594L1379.77 219.676L1376.23 213.393L1371.91 174.907L1347.17 147.025L1344.82 141.134L1283.95 102.452L1272.75 11.5402L1255.08 0.454102L1038.31 161.161L986.863 166.463L982.15 207.109L828.994 320.993L745.348 344.163L732.781 394.037L733.567 537.768L640.102 718.414L589.05 822.874L435.797 952.77L435.797 952.765Z" fill="#EDEDED"/>
<path d="M823.656 1294.87L1380.91 1056.3L3037.94 1337.28" stroke="#B5B5B5" stroke-width="6.2304" stroke-miterlimit="22.9256"/>
<path d="M2117.81 466.213C2117.81 466.213 2091.89 541.612 2079.52 553.393C2067.15 565.174 1660.11 836.732 1660.11 836.732C1660.11 836.732 1652.16 859.263 1648.33 863.092C1644.5 866.922 1642 868.1 1635.37 867.363C1628.75 866.627 1600.62 868.688 1597.23 870.75C1593.84 872.812 1592.08 872.812 1591.19 872.812C1590.31 872.812 1546.43 867.658 1546.43 867.658C1546.43 867.658 1541.71 873.696 1534.79 875.168C1527.87 876.641 1497.53 878.113 1497.53 878.113C1497.53 878.113 1485.46 874.137 1481.63 870.162C1477.8 866.185 1448.64 850.576 1448.64 850.576C1448.64 850.576 1411.09 830.547 1406.97 830.547C1402.84 830.547 1387.67 824.952 1382.22 818.913C1376.78 812.876 1334.07 780.919 1334.07 780.919C1334.07 780.919 1304.17 755.737 1302.26 752.35C1300.34 748.963 1199.62 656.038 1199.62 656.038L1076.5 527.623L1040.72 487.125C1040.72 487.125 1036.3 463.122 1034.68 456.788C1033.06 450.456 1017.89 335 1017.89 335L1001.4 218.366C1001.4 218.366 1006.4 207.173 1004.64 200.399C1002.87 193.624 1001.4 188.618 999.04 184.2C991.252 169.598 1003.39 160.366 997.273 142.377C992.265 127.65 988.437 131.184 988.437 131.184C988.437 131.184 984.903 147.089 987.259 155.041C989.615 162.993 995.997 169.178 995.997 169.178" stroke="#B5B5B5" stroke-width="7.78848" stroke-miterlimit="22.9256"/>
<path d="M1420.45 836.149C1420.45 836.149 1414.99 787.618 1420.29 779.666C1425.59 771.714 1443.85 762.289 1445.33 756.103C1446.8 749.918 1460.05 719.582 1460.05 719.582C1460.05 719.582 1463.29 708.39 1463 700.732C1462.7 693.074 1463.88 685.71 1463.88 685.71C1463.88 685.71 1463.15 669.806 1458.43 666.125C1453.72 662.443 1453.57 656.994 1446.5 656.994C1439.44 656.994 1430.6 659.056 1430.01 666.125C1429.42 673.193 1430.01 687.92 1418.08 690.571C1406.15 693.221 1397.32 691.897 1397.32 691.897C1397.32 691.897 1386.57 684.68 1382.59 676.434C1378.61 668.187 1373.02 646.539 1363.74 639.028C1354.46 631.518 1340.03 625.995 1336.57 622.534C1333.11 619.073 1320.22 593.228 1320.22 593.228C1320.22 593.228 1309.25 569.444 1297.18 552.803C1285.1 536.162 1264.34 514.661 1264.34 514.661C1264.34 514.661 1258.89 507.298 1250.2 517.017C1241.51 526.736 1232.38 555.895 1232.38 555.895C1232.38 555.895 1218.72 580.011 1207.24 588.11C1195.75 596.21 1169.29 623.453 1169.29 623.453" stroke="#B5B5B5" stroke-width="7.78848" stroke-miterlimit="22.9256"/>
<path d="M1225.99 678.628C1225.99 678.628 1253.48 653.2 1255.1 650.843C1256.72 648.488 1256.86 644.07 1258.34 637.737C1259.81 631.404 1267.03 621.831 1271.74 614.321C1276.45 606.81 1291.18 586.193 1291.18 586.193L1305.76 570.73" stroke="#B5B5B5" stroke-width="7.78848" stroke-miterlimit="22.9256"/>
<path d="M1059.52 508.402L1081.03 475.009C1081.03 475.009 1086.63 469.413 1092.52 459.988C1098.41 450.563 1137.29 395.78 1137.29 395.78C1137.29 395.78 1132.57 386.65 1149.66 389.89C1166.74 393.13 1217.4 409.918 1217.4 409.918L1261.58 421.11C1261.58 421.11 1282.93 420.668 1288.38 420.668C1293.83 420.668 1303.99 425.97 1306.79 426.412C1309.59 426.854 1317.54 425.824 1318.87 426.854C1320.19 427.885 1338.08 438.414 1341.91 439.223C1345.74 440.034 1352.59 440.401 1352.59 440.401C1352.59 440.401 1366.14 459.473 1369.38 459.619C1372.62 459.767 1378.8 457.705 1382.19 453.876C1385.58 450.047 1390.73 444.745 1391.62 444.745C1392.5 444.745 1398.39 448.722 1402.37 449.458C1406.34 450.194 1415.91 450.047 1415.91 450.047C1415.91 450.047 1415.18 457.705 1416.8 460.651C1418.42 463.596 1439.48 506.892 1439.48 506.892C1439.48 506.892 1448.9 537.964 1450.96 547.095C1453.03 556.225 1478.21 577.284 1481.01 596.134C1483.81 614.984 1480.27 632.509 1480.27 632.509C1480.27 632.509 1472.47 644.29 1467.02 647.972C1461.57 651.653 1450.72 657.922 1450.72 657.922" stroke="#B5B5B5" stroke-width="7.78848" stroke-miterlimit="22.9256"/>
<path d="M1214.68 412.347C1214.68 412.347 1214.68 411.464 1212.4 418.9C1210.11 426.337 1208.94 441.505 1210.48 443.862C1212.03 446.218 1249.14 490.987 1249.14 490.987C1249.14 490.987 1257.18 509.92 1256.89 512.277" stroke="#B5B5B5" stroke-width="7.78848" stroke-miterlimit="22.9256"/>
<path d="M1025.44 384.906L1232.79 216.042C1232.79 216.042 1266.96 174.513 1315.85 168.033C1364.74 161.553 1462.23 160.67 1462.23 160.67C1462.23 160.67 1485.5 159.197 1521.43 173.924" stroke="#B5B5B5" stroke-width="7.78848" stroke-miterlimit="22.9256"/>
<path d="M1365.29 163.795C1365.29 163.795 1352.82 166.708 1349.28 169.211C1345.75 171.715 1339.71 178.342 1334.55 173.629C1329.4 168.917 1312.02 137.843 1294.64 139.316C1277.27 140.789 1218.95 193.215 1218.95 193.215C1218.95 193.215 1191.85 211.771 1169.76 207.942C1147.67 204.113 1146.5 202.051 1146.5 202.051L1102.32 201.756C1102.32 201.756 1096.28 199.254 1088.33 199.254C1080.38 199.254 1075.66 202.494 1069.48 200.431C1063.29 198.369 1068.15 199.106 1062.26 197.781C1056.37 196.456 1058.58 200.285 1054.16 196.308C1049.74 192.332 1043.71 188.356 1042.97 187.326C1042.23 186.295 1013.96 171.568 1013.96 171.568C1013.96 171.568 1009.1 171.126 1009.25 162.143C1009.39 153.16 1012.19 143.882 1011.16 139.022C1010.13 134.163 1009.83 129.155 1009.83 129.155L1006.59 112.515" stroke="#B5B5B5" stroke-width="7.78848" stroke-miterlimit="22.9256"/>
<path d="M1018.57 173.982C1018.57 173.982 1044.74 173.187 1047.53 176.427C1050.33 179.667 1054.16 185.705 1059.46 186.883C1064.76 188.061 1109.98 189.828 1109.98 189.828L1119.69 200.578" stroke="#B5B5B5" stroke-width="7.78848" stroke-miterlimit="22.9256"/>
<path d="M1565.91 866.658C1565.91 866.658 1581.22 841.034 1585.94 831.609C1590.65 822.184 1597.28 797.001 1597.28 797.001C1597.28 797.001 1597.87 785.367 1602.58 775.795C1607.29 766.223 1620.1 748.698 1620.1 748.698C1620.1 748.698 1632.47 716.742 1640.13 699.07C1647.79 681.398 1660.45 660.045 1660.45 660.045C1660.45 660.045 1674 631.622 1674 604.82C1674 578.018 1682.25 571.832 1680.78 549.743C1679.31 527.653 1676.65 506.741 1676.65 496.138C1676.65 485.535 1695.04 462.832 1695.04 462.832" stroke="#B5B5B5" stroke-width="7.78848" stroke-miterlimit="22.9256"/>
<path d="M1928.97 655.577C1928.97 655.577 1884.89 639.427 1883.71 636.776C1882.53 634.126 1880.03 635.745 1881.79 629.708C1883.56 623.671 1909.63 587.59 1909.63 587.59" stroke="#B5B5B5" stroke-width="7.78848" stroke-miterlimit="22.9256"/>
<path d="M1624.08 325.163C1624.08 325.163 1622.61 386.131 1633.51 404.392C1644.4 422.653 1689.47 459.469 1689.47 459.469L1882.09 556.958L2054.68 743.396" stroke="#B5B5B5" stroke-width="7.78848" stroke-miterlimit="22.9256"/>
<path d="M1799.25 514.112L1833.93 470.661L1853.67 475.52L1900.2 416.467" stroke="#B5B5B5" stroke-width="7.78848" stroke-miterlimit="22.9256"/>
<path d="M2078.39 766.368C2078.39 766.368 2139.65 835.288 2139.65 856.494C2139.65 877.7 2130.82 944.853 2123.75 956.929C2116.68 969.005 2087.52 1000.23 2076.04 1013.18C2064.55 1026.14 2052.47 1048.53 2052.18 1055.3C2051.89 1062.08 2048.06 1181.36 2048.06 1181.36C2048.06 1181.36 2042.76 1298.58 2032.15 1320.38C2021.55 1342.18 1998.58 1416.4 1998.58 1416.4C1998.58 1416.4 1984.44 1460.58 1983.55 1500.63C1982.67 1540.69 2011.53 1687.95 2011.53 1687.95C2011.53 1687.95 2037.16 1793.1 2042.75 1806.06C2048.35 1819.02 2057.19 1836.4 2057.19 1836.4C2057.19 1836.4 2077.21 1872.33 2077.8 1897.66C2078.39 1922.99 2073.97 1983.96 2092.82 2015.47C2111.67 2046.99 2118.45 2049.05 2118.45 2049.05C2118.45 2049.05 2083.11 2044.04 2104.9 2072.61C2115.48 2086.48 2099.4 2079.73 2078.41 2068.31C2056.16 2056.2 2028.38 2038.84 2020.96 2035.2C2006.53 2028.14 1939.08 1996.91 1861.32 1986.02C1783.57 1975.12 1727.61 1997.21 1727.61 1997.21" stroke="#B5B5B5" stroke-width="7.78848" stroke-miterlimit="22.9256"/>
<path d="M1958.52 2172.75C1958.52 2172.75 1962.64 2178.05 1960.58 2172.46C1958.52 2166.86 1956.16 2150.96 1949.39 2145.65C1942.62 2140.35 1946.15 2116.79 1940.85 2108.84C1935.55 2100.88 1927.59 2097.64 1927.59 2087.93C1927.59 2078.21 1929.36 2054.05 1926.42 2036.09C1923.47 2018.12 1932.01 1960.39 1932.01 1960.39C1932.01 1960.39 1949.98 1946.7 1953.22 1936.39C1956.46 1926.08 1955.87 1920.34 1955.87 1920.34C1955.87 1920.34 1962.79 1909.44 1950.71 1893.09C1938.64 1876.75 1930.24 1846.85 1929.95 1844.35C1929.66 1841.84 1924.8 1825.79 1920.52 1820.05C1916.25 1814.31 1917.73 1812.69 1909.04 1816.37C1900.35 1820.05 1885.18 1828.44 1875.46 1824.32C1865.74 1820.2 1845.71 1804.44 1845.71 1804.44C1845.71 1804.44 1844.54 1801.94 1823.18 1807.83C1801.83 1813.72 1681.37 1835.07 1681.37 1835.07L1701.4 1651.28L1816.85 1608.28L1782.1 1546.43L1922.88 1479.87C1922.88 1479.87 1904.62 1465.14 1911.69 1449.24C1918.76 1433.33 1989.91 1391.37 1991.04 1390.2" stroke="#B5B5B5" stroke-width="7.78848" stroke-miterlimit="22.9256"/>
<path d="M2271.31 1463.37C2268.07 1462.19 2194.14 1466.61 2171.17 1466.02C2148.2 1465.43 2140.25 1465.73 2124.34 1460.13C2108.44 1454.54 2080.46 1436.57 2077.22 1433.92C2073.98 1431.27 2068.68 1413.01 2068.68 1413.01C2068.68 1413.01 2048.06 1404.76 2034.81 1400.64C2021.55 1396.51 1981.79 1390.92 1977.37 1386.21C1972.95 1381.49 1940.56 1350.86 1940.56 1350.86C1940.56 1350.86 1907.27 1305.5 1895.79 1291.37C1884.3 1277.23 1854.26 1218.03 1854.26 1218.03C1854.26 1218.03 1854.55 1203.89 1844.25 1199.77C1833.94 1195.64 1829.22 1187.1 1825.4 1183.57C1821.57 1180.03 1803.6 1176.21 1803.6 1176.21L1767.08 1152.64L1729.97 1150.58L1661.64 1114.94" stroke="#B5B5B5" stroke-width="7.78848" stroke-miterlimit="22.9256"/>
<path d="M2079.62 2067.9C2079.62 2067.9 2112.26 2051.55 2095.18 2028.58C2078.1 2005.6 1984.44 1924.31 1979.14 1918.72C1973.84 1913.12 1959.11 1888.08 1959.11 1888.08C1959.11 1888.08 1942.17 1856.13 1940.11 1851.42C1938.05 1846.7 1939.52 1821.37 1938.93 1819.61C1938.34 1817.84 1935.1 1801.05 1928.33 1792.21C1921.56 1783.38 1910.66 1766 1907.42 1757.46C1904.18 1748.92 1901.53 1737.73 1901.53 1737.73C1901.53 1737.73 1854.4 1681.47 1850.43 1675.14C1846.45 1668.81 1817.39 1609.53 1817.39 1609.53" stroke="#B5B5B5" stroke-width="7.78848" stroke-miterlimit="22.9256"/>
<path d="M1783.57 1544.86L1532.04 1057.21L1481.67 1015.54C1481.67 1015.54 1392.73 979.899 1384.78 980.636C1376.82 981.372 1378.44 982.55 1375.2 984.612C1371.96 986.674 1365.07 987.638 1365.07 987.638C1365.07 987.638 1363.73 993.093 1360.07 994.436C1357.58 995.54 1367.99 1016.72 1367.99 1016.72L1422.48 1149.99L1467.24 1209.19L1533.07 1262.8C1533.07 1262.8 1536.61 1272.81 1536.16 1274.87C1535.72 1276.93 1536.31 1277.37 1536.31 1277.37C1536.31 1277.37 1560.32 1267.21 1565.91 1254.99C1571.51 1242.77 1592.42 1189.46 1592.42 1189.46C1592.42 1189.46 1601.99 1186.51 1603.91 1183.12C1605.82 1179.74 1615.98 1163.98 1615.98 1163.98C1615.98 1163.98 1648.68 1133.42 1653.68 1126.94C1658.69 1120.46 1674.89 1095.13 1674.89 1095.13L1681.37 1058.61C1681.37 1058.61 1691.68 1040.65 1691.97 1021.5C1692.27 1002.36 1694.62 960.534 1701.69 949.048C1708.76 937.562 1731.44 921.656 1735.27 914.588C1739.1 907.519 1740.28 892.793 1740.28 892.793L1695.51 817.393" stroke="#B5B5B5" stroke-width="7.78848" stroke-miterlimit="22.9256"/>
<path d="M1287.18 1552.02L1350.21 1397.1" stroke="#B5B5B5" stroke-width="7.78848" stroke-miterlimit="22.9256"/>
<path d="M1346.49 1406.45L1471.37 1099.85L1511.03 1039.83" stroke="#B5B5B5" stroke-width="7.78848" stroke-miterlimit="22.9256"/>
<path d="M1482.61 1015.81L1499.2 1014.43C1499.2 1014.43 1523.35 1032.84 1527.48 1037.99C1531.6 1043.15 1552.37 1058.17 1552.37 1058.17L1566.21 1076.28L1579.91 1072.38L1613.41 1162.14L1621.21 1170.53L1605.63 1199.55" stroke="#B5B5B5" stroke-width="7.78848" stroke-miterlimit="22.9256"/>
<path d="M1420.44 1148.79L1338.02 1184.67L1333.6 1173.92L1030.45 1302.2" stroke="#B5B5B5" stroke-width="7.78848" stroke-miterlimit="22.9256"/>
<path d="M1165.28 1150.5L1188.84 1210.88L1261.3 1349.02C1261.3 1349.02 1282.5 1379.65 1295.17 1389.07C1307.83 1398.5 1343.1 1414.56 1343.1 1414.56" stroke="#B5B5B5" stroke-width="7.78848" stroke-miterlimit="22.9256"/>
<path d="M1042.76 1460.65L1083.11 1427.07L1090.18 1427.95L1149.97 1402.92L1199.74 1383.77L1261.3 1349.02" stroke="#B5B5B5" stroke-width="7.78848" stroke-miterlimit="22.9256"/>
<path d="M1307.9 1501.1L1107.75 1420.59" stroke="#B5B5B5" stroke-width="7.78848" stroke-miterlimit="22.9256"/>
<path d="M1083.11 1427.07L1028.07 1296.59" stroke="#B5B5B5" stroke-width="7.78848" stroke-miterlimit="22.9256"/>
<path d="M1028.32 1297.18L995.786 1221.18L984.881 1197.48L936.431 1136.07L829.811 931.963L1022.14 830.35L1283.68 784.992C1283.68 784.992 1296.2 785.139 1301.65 778.66C1307.1 772.18 1314.53 764.088 1314.53 764.088" stroke="#B5B5B5" stroke-width="7.78848" stroke-miterlimit="22.9256"/>
<path d="M1304.96 757.822L1277.86 786.002" stroke="#B5B5B5" stroke-width="7.78848" stroke-miterlimit="22.9256"/>
<path d="M1229.56 685.662L1206.74 711.728C1206.74 711.728 1197.46 735.438 1195.4 746.483C1193.34 757.528 1187.74 787.57 1196.87 810.396C1206 833.222 1213.51 843.53 1213.51 843.53L1239.43 866.946" stroke="#B5B5B5" stroke-width="7.78848" stroke-miterlimit="22.9256"/>
<path d="M1259.75 885.5L1282.29 905.675" stroke="#B5B5B5" stroke-width="7.78848" stroke-miterlimit="22.9256"/>
<path d="M1355.82 797.977L1304.52 878.727C1304.52 878.727 1246.2 949.12 1244.73 946.468C1243.26 943.818 1183.18 890.803 1183.18 890.803C1183.18 890.803 1147.24 857.226 1145.77 810.691" stroke="#B5B5B5" stroke-width="7.78848" stroke-miterlimit="22.9256"/>
<path d="M1362.1 979.75L1349.59 972.975L1312.47 899.343L1317.48 889.991L1303.93 880.861" stroke="#B5B5B5" stroke-width="7.78848" stroke-miterlimit="22.9256"/>
<path d="M1297.16 890.434L1311.81 900.447" stroke="#B5B5B5" stroke-width="7.78848" stroke-miterlimit="22.9256"/>
<path d="M1360.4 979.401L1384.38 980.672" stroke="#B5B5B5" stroke-width="7.78848" stroke-miterlimit="22.9256"/>
<path d="M1356.69 995.139C1361.35 995.139 1365.12 991.364 1365.12 986.708C1365.12 982.052 1361.35 978.277 1356.69 978.277C1352.04 978.277 1348.26 982.052 1348.26 986.708C1348.26 991.364 1352.04 995.139 1356.69 995.139Z" stroke="#B5B5B5" stroke-width="7.78848" stroke-miterlimit="22.9256"/>
<path d="M1244.25 887.097C1250.68 889.966 1257.97 887.627 1260.54 881.871C1263.11 876.116 1259.98 869.125 1253.56 866.256C1247.14 863.386 1239.85 865.726 1237.28 871.481C1234.7 877.237 1237.83 884.228 1244.25 887.097Z" stroke="#B5B5B5" stroke-width="2.29394" stroke-miterlimit="22.9256"/>
<path fill-rule="evenodd" clip-rule="evenodd" d="M1351.48 1255.15C1351.48 1255.15 1349.86 1249.12 1342.28 1248.31C1334.69 1247.5 1324.83 1259.57 1321.29 1260.53C1317.76 1261.49 1313.34 1264.5 1313.49 1266.71C1313.63 1268.92 1316.36 1275.11 1321.51 1271.94C1326.67 1268.78 1336.17 1277.69 1336.17 1277.69C1336.17 1277.69 1354.35 1261.78 1351.48 1255.15L1351.48 1255.15Z" fill="#29626B"/>
<path fill-rule="evenodd" clip-rule="evenodd" d="M1971.17 1178.5C1971.17 1178.5 1963.81 1170.11 1961.01 1170.55C1958.21 1170.99 1957.92 1176.29 1956.59 1173.35C1955.27 1170.4 1957.92 1166.87 1954.09 1165.54C1950.26 1164.22 1938.33 1159.36 1935.98 1161.27C1933.62 1163.19 1928.76 1173.79 1930.53 1175.7C1932.29 1177.62 1934.06 1174.67 1934.06 1174.67L1933.03 1185.42C1933.03 1185.42 1928.32 1189.54 1939.36 1200.74C1950.41 1211.93 1958.65 1215.61 1957.62 1231.22C1956.59 1246.83 1956.15 1254.34 1956.15 1253.16C1956.15 1251.99 1976.77 1228.72 1976.77 1228.72C1976.77 1228.72 1972.94 1228.42 1973.38 1222.24C1973.82 1216.05 1975.74 1213.55 1972.2 1213.84C1968.67 1214.14 1965.43 1230.63 1966.02 1214.43C1966.61 1198.23 1968.82 1185.42 1968.82 1185.42C1968.82 1185.42 1969.9 1177.11 1971.17 1178.5L1971.17 1178.5Z" fill="#29626B"/>
<path fill-rule="evenodd" clip-rule="evenodd" d="M1890.47 573.535C1885.17 569.264 1881.93 566.024 1881.93 566.024C1881.93 566.024 1878.1 571.915 1883.26 577.511C1888.41 583.107 1889 590.028 1889.15 593.563C1889.29 597.097 1893.56 602.399 1893.56 602.399C1901.59 593.73 1905.66 585.771 1890.47 573.534V573.535Z" fill="#29626B"/>
<path fill-rule="evenodd" clip-rule="evenodd" d="M1092.66 1004.91C1091.93 1002.26 1093.1 1000.2 1092.51 994.456C1091.93 988.713 1090.75 985.031 1082.65 982.97C1074.55 980.908 1069.69 978.404 1069.39 980.761C1069.1 983.118 1077.05 992.542 1077.93 994.31C1078.82 996.077 1083.97 999.022 1076.61 1000.64C1069.25 1002.26 1064.39 996.518 1067.77 1003.44C1071.16 1010.36 1072.78 1007.42 1075.58 1010.07C1078.38 1012.72 1076.17 1018.02 1078.23 1016.99C1080.29 1015.96 1080.88 1010.36 1082.06 1008.89C1083.24 1007.42 1086.33 1005.8 1086.48 1012.57C1086.62 1019.34 1082.2 1020.23 1087.21 1023.03C1092.22 1025.82 1097.82 1027.3 1100.02 1023.03C1102.23 1018.76 1101.64 1014.48 1098.4 1010.66C1095.16 1006.83 1090.75 999.316 1092.66 1004.91H1092.66Z" fill="#29626B"/>
<path fill-rule="evenodd" clip-rule="evenodd" d="M1118.73 1060.43C1113.72 1061.17 1117.25 1061.76 1112.1 1059.25C1106.95 1056.75 1115.49 1058.52 1106.95 1056.75C1098.4 1054.98 1090.89 1051.3 1090.6 1052.33C1090.3 1053.36 1090.89 1060.28 1090.16 1061.31C1089.42 1062.34 1085.45 1046.15 1085.45 1046.15L1087.36 1039.22C1087.36 1039.22 1090.45 1048.8 1095.31 1044.38C1100.17 1039.96 1093.54 1037.6 1097.67 1032.89C1101.79 1028.18 1101.64 1024.94 1103.85 1030.09C1106.06 1035.25 1107.39 1037.6 1106.95 1040.99C1106.5 1044.38 1104.88 1045.26 1107.39 1046.29C1109.89 1047.32 1124.91 1049.38 1118.73 1060.43V1060.43Z" fill="#29626B"/>
<path fill-rule="evenodd" clip-rule="evenodd" d="M2144.43 782.982L2128.23 792.113C2123.52 796.236 2119.4 793.88 2119.4 793.88C2119.4 793.88 2112.62 806.25 2092.89 822.45C2073.15 838.649 2048.41 873.992 2047.53 877.233C2046.65 880.473 2018.96 943.208 2015.72 949.098C2012.48 954.989 2005.41 959.996 2007.47 965.297C2009.53 970.598 2011.3 978.846 2005.12 985.326C1998.93 991.806 2005.12 1001.52 1995.4 1002.41C1985.68 1003.29 1988.03 1009.48 1976.25 1010.36C1964.47 1011.24 1971.25 1026.85 1955.34 1025.68C1939.44 1024.5 1928.54 1035.98 1914.7 1018.02C1900.85 1000.05 1864.63 981.497 1864.63 981.497C1864.63 981.497 1834.58 975.312 1829.58 970.011C1824.57 964.71 1822.51 965.003 1816.91 965.298C1811.32 965.593 1808.08 965.593 1808.08 965.593L1793.94 970.305C1793.94 970.305 1754.47 996.225 1749.17 1006.24C1743.87 1016.25 1726.49 1049.24 1714.42 1053.95C1702.34 1058.66 1698.81 1065.73 1694.39 1068.68C1689.97 1071.62 1685.17 1076.74 1679.03 1071.83C1672.89 1066.91 1645.2 1066.47 1639.6 1061.76C1634.01 1057.05 1640.19 1059.7 1632.54 1056.9C1624.88 1054.1 1615.89 1051.45 1613.83 1045.71C1611.77 1039.96 1612.51 1037.9 1610.3 1038.05C1608.09 1038.19 1607.5 1042.17 1604.56 1036.13C1601.61 1030.1 1566.27 997.698 1566.27 997.698C1566.27 997.698 1561.41 985.328 1547.12 979.584C1532.84 973.84 1512.66 962.354 1502.79 956.463C1492.93 950.573 1423.86 921.267 1404.13 922.445C1384.39 923.624 1358.18 925.39 1358.18 925.39C1358.18 925.39 1357 924.801 1352.88 928.041C1348.75 931.281 1338.15 929.808 1338.15 929.808L1312.23 943.356C1312.23 943.356 1269.82 976.491 1256.86 984.149C1243.9 991.807 1240.96 989.45 1229.18 996.225C1217.39 1003 1207.97 1005.65 1200.02 1007.12C1192.07 1008.6 1159.67 1006.83 1159.67 1006.83C1159.67 1006.83 1149.65 1009.48 1140.52 1000.94C1131.39 992.396 1123.44 987.389 1122.56 978.848C1121.67 970.306 1125.21 944.976 1119.32 935.257C1113.43 925.538 1114.9 920.53 1106.06 907.571C1097.23 894.612 1095.16 885.482 1088.98 881.653C1082.8 877.824 1080.14 876.941 1078.08 872.817C1076.02 868.694 1067.48 854.262 1062.77 852.494C1058.05 850.727 1056.29 849.844 1043.03 846.604C1029.78 843.364 1023.89 837.179 1010.93 849.254C997.971 861.33 971.464 905.509 971.464 905.509C971.464 905.509 911.674 986.211 906.668 993.279C901.66 1000.35 895.77 1010.95 891.646 1015.96C887.523 1020.96 877.215 1024.5 873.975 1026.27C870.735 1028.03 850.707 1036.28 841.871 1044.82C833.036 1053.36 826.556 1068.97 826.556 1075.16C826.556 1081.34 818.604 1104.61 818.604 1110.21C818.604 1115.8 824.2 1125.82 824.2 1127.59C824.2 1129.35 829.502 1150.85 827.146 1155.57C824.79 1160.28 821.55 1168.23 817.427 1179.42C813.304 1190.62 818.31 1191.79 810.064 1211.53C801.816 1231.26 796.81 1235.38 789.741 1241.27C782.673 1247.16 781.494 1257.47 770.302 1262.48C759.111 1267.49 751.158 1279.56 733.486 1279.86C715.815 1280.15 708.745 1281.92 695.786 1281.03C682.827 1280.15 668.395 1276.32 665.156 1271.9C661.916 1267.49 663.093 1250.4 643.361 1235.97C623.627 1221.54 604.777 1207.4 604.777 1207.4C604.777 1207.4 592.996 1200.48 583.719 1196.8C574.44 1193.12 576.502 1188.99 572.821 1187.08C569.139 1185.17 570.317 1189.73 567.814 1184.28C565.311 1178.83 536.594 1152.03 534.237 1147.76C531.882 1143.49 534.679 1137.01 527.169 1134.8C519.659 1132.59 517.743 1134.36 515.682 1132.59C513.62 1130.83 511.264 1129.21 509.497 1129.06C507.73 1128.91 504.637 1129.06 503.312 1128.91C501.986 1128.76 496.832 1126.26 493.74 1127C490.648 1127.73 465.023 1142.31 458.691 1150.85C452.359 1159.39 457.513 1165.29 457.513 1165.29L452.8 1176.04C452.8 1176.04 454.421 1193.27 455.304 1205.34C456.187 1217.42 444.996 1224.49 444.996 1224.49C444.996 1224.49 443.818 1237.45 435.57 1241.57C427.324 1245.69 412.891 1252.47 394.925 1256C376.958 1259.53 333.074 1285.45 325.121 1284.57C317.17 1283.69 311.573 1292.82 302.149 1295.17C292.723 1297.53 281.826 1297.82 275.346 1297.53C268.866 1297.23 278.88 1294.88 262.681 1297.23C246.482 1299.59 259.736 1299 243.242 1294.29C226.748 1289.58 218.796 1294.29 220.858 1301.65C222.92 1309.01 228.81 1311.37 228.81 1318.44C228.81 1325.51 228.221 1357.61 228.221 1357.61C228.221 1357.61 236.762 1370.28 224.981 1379.11C213.2 1387.95 218.501 1394.72 208.487 1385C198.473 1375.28 199.651 1383.83 197.589 1372.04C195.527 1360.26 199.062 1359.09 189.637 1354.37C180.212 1349.66 190.815 1345.54 169.02 1348.48C147.226 1351.43 131.615 1363.8 131.615 1363.8C131.615 1363.8 134.56 1386.77 126.609 1399.73C118.656 1412.69 112.765 1424.18 100.984 1424.18C89.2031 1424.18 90.3811 1432.13 75.6547 1429.48C60.9283 1426.83 46.4956 1419.76 42.0777 1419.76C37.6598 1419.76 32.6524 1420.94 30.2965 1410.04C27.9407 1399.14 24.406 1400.91 27.0565 1392.66C29.7071 1384.42 32.6524 1387.36 28.5292 1382.35C24.406 1377.35 19.9881 1382.94 17.926 1372.93C15.8639 1362.92 19.1039 1363.5 15.5702 1354.37C12.0364 1345.24 9.67955 1361.74 11.1522 1343.48C12.6248 1325.21 8.79538 1326.39 12.6248 1322.27C16.4543 1318.15 18.5154 1314.91 29.1186 1310.78C39.7218 1306.66 50.0303 1309.9 54.743 1295.76C59.4556 1281.63 64.0204 1238.47 54.3004 1234.35C44.5813 1230.23 74.9174 1227.87 43.6972 1222.57C12.4771 1217.27 15.813 1215.5 8.94326 1215.5C2.07253 1215.5 2.0725 1215.5 2.0725 1215.5L5.4085 1226.11C5.4085 1226.11 26.4671 1216.39 39.7219 1228.76C52.9756 1241.13 56.3625 1237.89 55.6262 1254.38C54.8899 1270.87 56.952 1285.9 49.294 1293.55C41.6361 1301.21 38.5439 1302.98 32.3586 1304.74C26.1734 1306.51 5.95386 1309.9 2.07353 1326.39C-1.80679 1342.89 2.61113 1354.08 2.90585 1356.88C3.20057 1359.67 5.40955 1353.2 7.02907 1362.77C8.64859 1372.34 22.9334 1412.84 27.646 1419.61C32.3587 1426.39 32.3586 1439.35 65.6409 1436.69C98.9231 1434.04 105.697 1433.75 114.238 1424.62C122.779 1415.49 134.327 1395.58 134.855 1378.38C135.383 1361.17 150.759 1355.4 162.54 1355.99C174.322 1356.58 189.048 1352.46 192.288 1367.77C195.528 1383.09 183.452 1391.92 199.063 1394.28C214.672 1396.64 229.105 1395.46 234.111 1383.97C239.118 1372.49 249.721 1351.57 244.715 1339.79C239.707 1328.01 247.955 1319.18 251.783 1322.12C255.613 1325.07 250.9 1320.06 251.488 1317.7C252.078 1315.35 251.488 1308.57 258.263 1313.29C265.037 1318 263.564 1310.34 263.564 1310.34C263.564 1310.34 269.455 1312.4 270.338 1314.46C271.221 1316.53 266.215 1303.86 277.113 1305.33C288.011 1306.81 284.181 1301.21 288.894 1300.62C293.606 1300.03 292.722 1316.52 306.86 1312.11C320.997 1307.69 331.307 1294.14 336.313 1291.2C341.319 1288.25 366.355 1268.22 387.561 1267.04C408.767 1265.87 406.41 1273.23 427.027 1261.74C447.644 1250.26 444.994 1245.54 457.364 1228.17C469.734 1210.79 461.194 1202.54 465.905 1197.83C470.618 1193.12 462.96 1166.31 462.96 1166.31C462.96 1166.31 476.803 1143.78 485.934 1140.84C495.065 1137.89 513.178 1134.95 517.154 1140.25C521.13 1145.55 530.408 1151.44 532.764 1155.12C535.121 1158.8 565.015 1197.24 570.611 1201.07C576.207 1204.9 604.482 1218.15 618.62 1228.75C632.756 1239.36 646.6 1243.18 649.545 1250.55C652.49 1257.91 660.148 1270.72 661.769 1278.23C663.388 1285.74 689.307 1293.4 705.065 1290.9C720.822 1288.4 747.477 1286.63 769.419 1273.37C791.362 1260.12 802.554 1244.07 810.359 1227.43C818.164 1210.79 824.056 1200.48 825.086 1189.58C826.117 1178.68 824.938 1175.15 830.093 1165.43C835.247 1155.71 837.31 1156.15 836.573 1150.11C835.837 1144.08 831.714 1134.06 833.407 1130.45C835.101 1126.85 837.678 1129.57 835.101 1126.85C832.524 1124.12 820.816 1120.73 825.013 1113.15C829.21 1105.57 829.431 1112.12 830.757 1104.53C832.081 1096.95 832.081 1095.48 832.081 1093.2C832.081 1090.91 833.481 1084.95 835.837 1079.57C838.193 1074.2 837.604 1076.11 837.604 1072.87C837.604 1069.63 845.852 1057.78 853.436 1051.96C861.02 1046.14 880.385 1035.54 893.786 1027.59C907.187 1019.64 915.581 1004.03 924.712 987.237C933.842 970.449 964.473 934.222 964.473 934.222C964.473 934.222 1003.35 875.61 1005.71 870.014C1008.06 864.417 1019.55 847.925 1025.44 849.397C1031.33 850.87 1045.47 851.754 1052.54 859.706C1059.61 867.657 1070.51 880.912 1080.81 891.809C1091.12 902.707 1102.61 917.139 1107.62 932.455C1112.62 947.77 1102.31 953.661 1104.67 963.085C1107.03 972.51 1107.62 978.99 1111.44 984.88C1115.27 990.771 1121.46 1010.5 1127.94 1014.92C1134.42 1019.34 1156.21 1024.64 1178.01 1025.23C1199.8 1025.82 1207.17 1026.41 1215.12 1022.29C1223.07 1018.16 1250.76 1005.5 1250.76 1005.5C1250.76 1005.5 1266.66 1002.26 1273.14 994.895C1279.62 987.532 1294.64 969.565 1304.66 968.387C1314.67 967.209 1324.98 959.846 1325.57 957.784C1326.16 955.722 1341.47 948.065 1355.02 947.181C1368.57 946.298 1369.45 941.29 1388.01 941.88C1406.56 942.469 1441.02 946.298 1441.02 946.298C1441.02 946.298 1504.94 969.565 1512.89 976.045C1520.84 982.525 1520.55 982.525 1532.03 986.943C1543.52 991.361 1572.68 1020.23 1574.15 1022.29C1575.62 1024.35 1610.38 1063.82 1634.83 1070.59C1659.27 1077.36 1680.77 1082.96 1692.55 1081.19C1704.33 1079.42 1717.88 1067.94 1724.36 1057.34C1730.84 1046.73 1748.81 1021.7 1751.75 1015.22C1754.7 1008.74 1794.31 977.665 1800.35 975.897C1806.39 974.13 1822 972.658 1824.95 974.425C1827.89 976.192 1827.6 979.579 1829.51 981.493C1831.42 983.408 1835.25 981.935 1842.91 984.144C1850.57 986.353 1853.37 986.353 1873.98 997.987C1894.6 1009.62 1902.26 1023.46 1916.99 1029.35C1931.71 1035.24 1957.04 1039.81 1962.79 1036.28C1968.53 1032.74 1978.84 1024.79 1994.15 1015.95C2009.47 1007.12 2014.47 1017.72 2018.45 1007.71C2022.43 997.692 2024.19 989.15 2024.19 979.283C2024.19 969.416 2035.09 931.717 2040.54 920.083C2045.99 908.449 2059.54 887.537 2067.2 872.811C2074.85 858.084 2110.49 818.322 2110.49 818.322C2110.49 818.322 2119.92 806.247 2133.76 799.767C2147.6 793.287 2149.37 796.822 2161.74 783.863C2174.11 770.904 2183.54 759.123 2192.96 744.102C2202.39 729.08 2195.91 729.08 2210.04 716.121C2224.18 703.162 2243.33 689.024 2252.16 669.586C2261 650.147 2253.93 604.79 2266.3 584.172C2278.67 563.555 2291.92 526.444 2303.11 519.67C2314.31 512.896 2312.83 501.998 2316.37 494.635C2319.9 487.272 2354.66 455.757 2362.61 443.386C2370.56 431.016 2362.9 431.605 2368.21 417.762C2373.51 403.919 2382.34 400.09 2378.51 384.774C2374.69 369.458 2351.12 358.267 2347.59 342.951C2344.05 327.635 2331.39 319.389 2331.39 319.389C2331.39 319.389 2320.64 290.083 2318.14 283.604C2315.63 277.124 2313.42 272.117 2315.04 265.49C2316.66 258.863 2325.65 222.931 2334.92 214.095C2344.2 205.259 2346.41 200.988 2356.13 199.368C2365.85 197.749 2363.05 189.648 2378.07 190.827C2393.09 192.005 2393.24 191.71 2395.01 193.478C2396.77 195.245 2415.18 193.036 2417.24 188.913C2419.31 184.79 2424.7 183.464 2429.62 184.937C2434.53 186.409 2435.8 177.72 2435.8 177.72L2434.53 167.854C2434.53 167.854 2413.86 171.535 2400.16 172.271C2386.47 173.008 2376.31 169.621 2367.91 175.806C2359.52 181.991 2354.36 180.519 2344.2 188.029C2334.04 195.539 2324.32 210.265 2313.87 231.03C2303.41 251.795 2298.25 272.559 2298.25 273.885C2298.25 275.21 2292.95 303.337 2310.04 316.739C2327.12 330.14 2342.29 341.774 2343.61 349.727C2344.94 357.679 2352.3 361.656 2356.57 377.707C2360.84 393.759 2360.11 399.208 2360.11 399.208C2360.11 399.208 2352.45 389.929 2350.83 393.759C2349.21 397.588 2351.86 401.417 2353.92 407.896C2355.98 414.376 2357.31 415.849 2358.49 417.026C2359.66 418.204 2363.2 430.133 2354.07 439.411C2344.94 448.688 2321.08 458.85 2319.46 465.625C2317.84 472.398 2299.25 484.178 2297.96 505.238C2296.67 526.299 2269.1 548.239 2269.1 548.239C2269.1 548.239 2254.37 564.733 2255.55 582.994C2256.73 601.255 2245.53 647.79 2245.53 647.79C2245.53 647.79 2242 666.052 2234.93 676.655C2227.86 687.258 2211.37 699.629 2208.42 703.162C2205.48 706.697 2185.74 738.8 2179.56 745.28C2173.37 751.76 2158.05 781.566 2142.3 784.188C2126.54 786.809 2144.43 782.985 2144.43 782.985L2144.43 782.982Z" fill="#29626B"/>
<path fill-rule="evenodd" clip-rule="evenodd" d="M2367.54 377.042C2367.54 377.042 2361.94 372.403 2362.83 378.882C2363.71 385.362 2362.97 392.798 2362.97 394.786C2362.97 396.775 2363.64 399.868 2361.8 402.444C2359.96 405.022 2358.26 404.138 2359.96 409.145C2361.65 414.152 2363.2 416.729 2363.2 416.729C2363.2 416.729 2367.83 410.249 2371.96 401.782C2376.08 393.315 2375.34 391.105 2373.21 383.595C2371.07 376.085 2367.54 377.042 2367.54 377.042Z" fill="#EDEDED"/>
<path fill-rule="evenodd" clip-rule="evenodd" d="M2362.86 370.93C2362.86 370.93 2353.7 359.001 2352.3 357.676C2350.9 356.35 2357.38 371.482 2358.85 373.065C2360.32 374.648 2362.86 370.93 2362.86 370.93H2362.86Z" fill="#EDEDED"/>
<path fill-rule="evenodd" clip-rule="evenodd" d="M2027.58 938.305C2027.43 939.188 2013.74 958.48 2012.41 962.014C2011.08 965.549 2012.85 972.617 2012.12 976.446C2011.38 980.275 2005.05 990.73 2005.05 990.73C2005.05 990.73 2004.16 994.117 2002.69 998.683C2001.22 1003.25 1995.03 1005.16 1994.3 1007.37C1993.56 1009.58 1999.89 1010.32 2004.46 1007.22C2009.02 1004.13 2012.26 998.83 2015.21 990.141C2018.15 981.453 2018.15 978.949 2018.45 971.143C2018.74 963.339 2022.28 962.602 2024.63 955.681C2026.99 948.759 2026.76 939.72 2027.58 938.304L2027.58 938.305Z" fill="#F4F4F4"/>
<path fill-rule="evenodd" clip-rule="evenodd" d="M1983.1 1017.27C1982.08 1021.92 1979.21 1021.03 1975.73 1024.31C1972.24 1027.59 1964.66 1033.53 1962.89 1033.19C1961.11 1032.84 1954.49 1035.85 1959.81 1030.45C1965.14 1025.06 1968.9 1018.36 1972.45 1017.34C1976 1016.32 1975.86 1013.99 1976.82 1013.93C1977.78 1013.86 1980.1 1012.76 1981.26 1014.34C1982.42 1015.91 1983.1 1017.27 1983.1 1017.27H1983.1Z" fill="#F4F4F4"/>
<path fill-rule="evenodd" clip-rule="evenodd" d="M1239.2 997.726C1239.03 997.726 1238.84 997.744 1238.6 997.778C1235.63 998.211 1227.22 1001.26 1224.76 1003.1C1222.11 1005.09 1217.25 1006.34 1216.81 1009.51C1216.37 1012.67 1215.12 1015.47 1221.67 1013.7C1228.22 1011.94 1231.98 1009.36 1235.66 1005.68C1239.34 1002 1242.43 1001.33 1242.36 999.273C1242.29 997.211 1239.2 997.726 1239.2 997.726Z" fill="#F4F4F4"/>
<path fill-rule="evenodd" clip-rule="evenodd" d="M1202.97 1017.75C1191.26 1015.84 1198.4 1013.41 1188.9 1013.7C1179.4 1014 1174.25 1010.76 1177.05 1015.32C1179.85 1019.89 1185.59 1023.79 1191.7 1024.16C1197.81 1024.53 1204.88 1021.58 1202.97 1017.75L1202.97 1017.75Z" fill="#F4F4F4"/>
<path fill-rule="evenodd" clip-rule="evenodd" d="M249.94 1302.34C241.546 1298.66 232.858 1294.54 229.618 1297.34C226.378 1300.13 224.022 1302.05 226.819 1306.47C229.618 1310.88 234.477 1318.1 235.655 1320.6C236.833 1323.11 252.149 1310.3 249.94 1302.34V1302.34Z" fill="#EDEDED"/>
<path fill-rule="evenodd" clip-rule="evenodd" d="M469.006 947.515L495.808 1005.83L558.248 958.413C558.248 958.413 594.181 913.054 595.064 905.986C595.948 898.917 667.519 785.228 667.519 785.228L677.532 734.569L655.148 725.733L600.071 833.237L469.676 948.974L469.006 947.516V947.515Z" fill="#29626B"/>
<path fill-rule="evenodd" clip-rule="evenodd" d="M827.154 805.992C827.154 805.992 858.081 798.629 857.197 785.964C856.314 773.299 857.197 772.711 854.546 763.285C851.895 753.86 851.012 759.457 853.663 750.326C856.313 741.196 857.786 739.428 855.136 739.428C852.485 739.428 848.361 741.489 846.3 738.839C844.238 736.188 839.526 733.243 840.409 730.003C841.292 726.763 844.827 728.53 841.882 720.284C838.936 712.037 838.052 715.571 838.052 715.571L847.183 713.804C847.183 713.804 847.183 717.044 850.423 714.687C853.663 712.331 859.848 704.968 859.848 704.968C859.848 704.968 847.331 702.464 828.923 697.752C810.515 693.039 796.377 685.234 793.285 686.118C790.192 687.001 777.674 679.932 780.178 688.473C782.681 697.015 788.13 698.046 788.719 700.549C789.307 703.052 786.215 700.549 787.393 705.85C788.571 711.152 797.996 710.563 789.897 712.919C781.797 715.275 779.147 709.679 778.116 712.036C777.085 714.392 784.448 721.755 777.085 715.57C769.722 709.385 770.458 704.967 768.838 708.944C767.219 712.92 767.219 716.455 767.219 720.283C767.219 724.112 761.77 723.818 767.219 725.437C772.668 727.057 762.064 724.848 776.055 722.934C790.045 721.019 790.192 726.026 796.966 719.399C803.74 712.772 799.175 707.028 805.507 711.889C811.84 716.748 809.631 717.19 812.871 718.369C816.111 719.547 824.21 717.632 825.683 717.191C827.155 716.749 826.862 713.215 829.364 717.338C831.868 721.461 835.108 722.345 833.635 724.996C832.163 727.646 834.813 727.058 826.714 727.205C818.614 727.353 818.173 724.259 818.466 727.794C818.761 731.328 825.976 731.181 818.025 733.538C810.073 735.894 798.439 737.366 798.439 737.366C798.439 737.366 795.788 735.452 799.322 741.196C802.856 746.939 795.199 742.079 803.445 746.939C811.693 751.799 811.103 755.48 810.514 757.248C809.925 759.015 817.141 767.409 817.141 767.409L810.072 775.067L827.154 805.993V805.992Z" fill="#29626B"/>
<path fill-rule="evenodd" clip-rule="evenodd" d="M821.264 810.852C818.392 811 808.157 813.135 808.157 813.135C808.157 813.135 803.96 800.175 802.192 797.82C800.425 795.464 795.786 791.193 794.388 792.444C792.989 793.696 790.117 799.808 789.602 799.44C789.086 799.072 786.952 798.114 786.436 796.936C785.921 795.758 784.963 791.561 784.374 787.954C783.785 784.346 783.564 776.172 783.564 776.172L788.423 771.313L773.107 757.838L775.906 752.61L790.927 743.038L797.112 747.604L808.452 767.338C808.452 767.338 797.554 769.547 800.352 776.173C803.151 782.8 821.264 810.854 821.264 810.854V810.852Z" fill="#29626B"/>
<path fill-rule="evenodd" clip-rule="evenodd" d="M777.379 852.159C773.845 844.501 770.899 841.85 770.016 838.758C769.132 835.666 771.93 837.58 768.838 828.596C765.746 819.614 768.101 820.202 765.451 818.435C762.8 816.667 760.886 815.195 760.738 813.575C760.59 811.956 763.242 809.599 760.443 808.274C757.645 806.948 753.669 797.966 749.546 792.222C745.422 786.478 739.973 778.085 739.973 778.085C739.973 778.085 731.579 776.318 730.843 783.386C730.106 790.455 737.47 797.229 737.47 797.229C737.47 797.229 737.765 801.647 737.765 803.267C737.765 804.886 742.772 810.778 745.128 811.956C747.483 813.134 752.049 818.877 752.049 823.295C752.049 827.713 751.608 826.094 752.197 832.426C752.786 838.758 761.474 843.324 762.506 845.827C763.537 848.33 754.995 857.756 760.297 860.553C765.598 863.351 769.574 863.94 769.574 857.902C769.574 851.865 777.379 852.159 777.379 852.159Z" fill="#29626B" stroke="black" stroke-width="0.288" stroke-miterlimit="22.9256"/>
</svg>
